<mxfile host="app.diagrams.net" modified="2023-09-28T15:46:01.482Z" agent="Mozilla/5.0 (Macintosh; Intel Mac OS X 10_15_7) AppleWebKit/537.36 (KHTML, like Gecko) Chrome/117.0.0.0 Safari/537.36" version="21.8.0" etag="IqvPP-k_APNzsutQBl6O" type="github">
  <diagram name="Page-1" id="rqMMBLSKQua-eFxFzw5W">
    <mxGraphModel>
      <root>
        <mxCell id="0" />
        <mxCell id="1" parent="0" />
      </root>
    </mxGraphModel>
  </diagram>
</mxfile>
